<?xml version="1.0" encoding="UTF-8"?>
<svg xmlns="http://www.w3.org/2000/svg" xmlns:xlink="http://www.w3.org/1999/xlink" width="39px" height="20px" viewBox="0 0 38 20" version="1.1">
<g id="surface1">
<path style="fill:none;stroke-width:1;stroke-linecap:butt;stroke-linejoin:miter;stroke:rgb(0%,0%,0%);stroke-opacity:1;stroke-miterlimit:4;" d="M -524.010284 -345.640795 C -523.357006 -346.116974 -522.830168 -346.841594 -522.008302 -347.007221 C -521.902934 -346.220491 -522.071522 -345.454464 -522.345478 -344.729844 C -521.966155 -344.439996 -521.544685 -344.667733 -521.165362 -344.854064 C -520.659598 -345.102506 -520.153834 -345.30954 -519.584849 -345.392354 C -519.584849 -344.150148 -520.385642 -343.114976 -520.49101 -341.893474 C -520.596377 -341.251668 -520.090613 -340.713378 -519.584849 -340.36142 C -518.994791 -339.885241 -518.193998 -339.69891 -517.582866 -339.202028 C -516.992808 -338.518815 -516.782073 -337.504347 -516.297383 -336.717616 C -515.98128 -336.200031 -515.580884 -335.806665 -515.49659 -335.309783 C -515.791619 -334.916418 -516.381677 -334.916418 -516.887441 -334.812901 C -516.887441 -334.005467 -516.192015 -333.612102 -515.791619 -332.908185 C -512.799182 -329.01594 -509.596009 -325.102992 -506.793234 -321.003713 C -506.392837 -320.506831 -506.498205 -319.802914 -506.687866 -319.202515 C -507.088263 -318.105233 -507.488659 -316.904434 -507.783688 -315.703635 C -507.889056 -315.103235 -508.39482 -314.70987 -508.984878 -314.502836 C -509.596009 -314.70987 -510.0807 -315.103235 -510.691831 -315.206753 C -510.98686 -314.502836 -511.387257 -313.819623 -511.682286 -313.115706 C -511.787654 -312.701638 -512.483079 -312.805155 -512.799182 -313.012189 C -513.789636 -313.509071 -514.885458 -314.005954 -515.791619 -314.70987 C -516.192015 -315.31027 -516.297383 -316.117704 -516.782073 -316.718103 C -517.898969 -318.20875 -519.584849 -319.119701 -521.186435 -319.906431 C -523.694182 -321.10723 -526.286222 -322.204512 -528.688602 -323.612345 C -529.194366 -323.902193 -529.489395 -323.301794 -529.70013 -323.011946 C -531.280642 -320.299796 -533.282625 -317.815385 -534.188785 -314.813387 C -534.483814 -313.302037 -535.200313 -311.914907 -535.495342 -310.403557 C -535.895739 -309.202758 -536.0854 -308.001959 -536.485797 -306.80116 C -536.591164 -306.01443 -537.497325 -305.600361 -538.087383 -304.999962 C -538.782809 -304.420266 -539.098911 -303.509315 -539.288573 -302.701881 C -539.499308 -301.915151 -539.39394 -301.0042 -539.499308 -300.217469 C -539.583602 -299.410036 -539.583602 -298.519788 -539.583602 -297.712354 C -539.583602 -296.71859 -539.583602 -295.704122 -539.499308 -294.813874 C -539.288573 -292.61931 -539.583602 -290.404043 -539.899704 -288.20948 C -539.899704 -286.801647 -540.59513 -285.518034 -540.489762 -284.110201 C -539.583602 -283.903166 -538.698515 -283.406284 -537.686987 -283.406284 L -529.995159 -283.406284 C -527.698147 -283.613318 -525.380062 -283.799649 -523.293785 -283.116436 C -522.59836 -282.909402 -521.881861 -282.909402 -521.186435 -282.702368 C -520.090613 -282.309002 -518.994791 -282.309002 -517.983263 -281.708603 C -516.887441 -279.514039 -517.498572 -276.905407 -517.287837 -274.503809 C -517.098176 -274.006927 -516.782073 -273.613562 -516.487044 -273.220197 C -513.283872 -267.920119 -509.785671 -262.806371 -506.097808 -257.858252 C -504.980913 -256.450418 -503.779723 -255.021882 -502.683901 -253.634752 C -501.883108 -252.827318 -501.187682 -251.937071 -500.386889 -251.233154 C -499.691464 -250.632754 -499.080332 -250.094465 -498.195245 -249.825321 C -497.49982 -249.63899 -496.699027 -249.369845 -496.193263 -248.831556 C -495.898234 -248.438191 -495.982528 -247.920605 -495.982528 -247.46513 C -495.982528 -247.071765 -496.488292 -247.030358 -496.783321 -247.071765 C -498.679936 -247.071765 -500.597624 -246.968247 -502.494239 -247.071765 C -503.779723 -247.361613 -505.381309 -247.899902 -505.992441 -249.266328 C -506.392837 -250.467127 -506.582499 -251.771443 -507.488659 -252.661691 C -508.289452 -253.676159 -509.490642 -254.317965 -510.691831 -254.71133 C -510.98686 -254.897661 -511.597992 -254.918364 -511.597992 -255.415247 C -511.682286 -256.512529 -512.293418 -257.423479 -512.799182 -258.313727 C -513.789636 -260.011408 -514.885458 -261.626276 -516.086648 -263.116923 C -516.992808 -264.089984 -517.582866 -265.228673 -518.615468 -265.973996 C -518.805129 -266.18103 -519.121232 -266.284548 -519.416261 -266.18103 C -519.71129 -265.580631 -519.900952 -264.918121 -520.217054 -264.317722 C -520.406716 -264.00717 -520.512083 -263.613805 -520.406716 -263.303254 C -520.259201 -263.013406 -520.06954 -262.806371 -519.900952 -262.516523 C -520.006319 -261.605572 -520.512083 -260.818842 -520.849259 -260.011408 C -521.839714 -258.003176 -523.040903 -256.015646 -524.747857 -254.607813 C -525.949046 -253.614048 -527.445265 -253.117166 -528.899337 -252.703097 C -530.290188 -252.516767 -531.723186 -252.164808 -533.198331 -252.309732 C -533.49336 -252.413249 -533.387992 -252.703097 -533.282625 -252.910132 C -532.987596 -253.717566 -532.587199 -254.400779 -532.186803 -255.104695 C -531.38601 -256.409011 -530.627364 -257.713328 -529.594762 -258.810609 C -529.299733 -259.100457 -528.983631 -259.514526 -528.49894 -259.411009 C -527.592779 -259.514526 -526.981648 -258.810609 -526.180855 -258.810609 C -525.696164 -258.810609 -525.085033 -258.644982 -524.895371 -259.203974 C -524.979665 -260.032112 -525.885826 -260.715325 -525.696164 -261.605572 C -525.295768 -262.930592 -524.389607 -264.110687 -523.883843 -265.415003 C -523.630961 -266.615802 -524.094578 -267.920119 -523.483447 -269.0174 C -523.399153 -269.307248 -523.293785 -269.6178 -523.293785 -269.949055 C -523.989211 -270.549454 -524.600342 -271.232667 -525.485429 -271.646736 C -526.286222 -271.812363 -526.981648 -271.522515 -527.782441 -271.543219 L -531.491377 -271.232667 C -533.13511 -271.232667 -534.799917 -270.839302 -536.485797 -270.735785 C -537.581619 -270.839302 -538.698515 -270.549454 -539.794337 -270.632268 C -541.690952 -270.611564 -543.692934 -270.694378 -545.58955 -271.046336 C -546.980401 -271.315481 -548.392325 -271.336184 -549.783176 -271.294778 C -550.499675 -271.294778 -551.195101 -270.797895 -551.932673 -270.984226 C -553.850362 -271.294778 -555.64161 -271.998694 -557.432857 -272.495577 C -559.139811 -273.054569 -560.846764 -273.261603 -562.532645 -273.385824 C -562.848747 -273.385824 -563.249144 -273.365121 -563.544173 -273.282307 C -564.450333 -273.199493 -565.33542 -273.282307 -566.241581 -273.199493 C -567.147741 -272.992459 -568.138196 -273.158086 -569.044356 -273.095976 C -570.835604 -272.785425 -572.647925 -273.013162 -574.439173 -272.888942 C -575.74573 -272.681907 -577.031213 -272.888942 -578.33777 -272.681907 C -579.138563 -272.599094 -579.89721 -272.681907 -580.676929 -272.599094 C -581.793825 -272.392059 -582.973941 -272.495577 -584.11191 -272.412763 C -585.924231 -272.226432 -587.820846 -272.329949 -589.612094 -272.309246 C -591.129386 -272.205729 -592.625604 -272.702611 -594.016455 -272.909645 C -597.219628 -273.799893 -600.317432 -275.000692 -603.309869 -276.491339 C -606.32338 -278.002689 -609.315817 -279.493336 -612.413622 -280.694135 C -614.710634 -281.563679 -617.21838 -282.391816 -619.726127 -282.309002 C -621.812403 -282.205485 -623.83546 -281.501569 -625.542413 -280.30077 C -627.460102 -278.810123 -629.251349 -277.195255 -631.042597 -275.601091 C -631.674802 -274.897174 -632.349154 -274.296775 -633.149947 -273.90341 C -635.446959 -272.557687 -638.060073 -272.102211 -640.652114 -271.895177 C -641.242172 -271.895177 -641.747936 -272.205729 -642.359067 -272.309246 C -643.349522 -272.45417 -644.339976 -272.309246 -645.351504 -272.205729 C -646.257665 -272.205729 -647.142752 -271.998694 -648.048913 -271.895177 C -649.439764 -271.79166 -650.851688 -271.398295 -652.242539 -270.901412 C -654.644918 -270.073275 -656.752269 -268.209967 -658.14312 -265.9947 C -658.964986 -264.897418 -659.555044 -263.572398 -660.25047 -262.309489 L -663.559009 -256.16057 C -663.854038 -255.560171 -664.359802 -255.063288 -664.654831 -254.462889 C -664.844493 -253.966007 -665.055228 -253.469124 -665.455625 -253.075759 L -668.658797 -249.908134 C -669.649251 -248.893666 -670.850441 -247.899902 -672.241292 -247.52724 C -672.957791 -247.320206 -673.758584 -247.030358 -674.559377 -247.133875 C -675.444464 -247.237392 -676.350625 -247.133875 -677.151418 -247.237392 C -678.141872 -247.52724 -679.1534 -247.837791 -679.848826 -248.521005 C -680.059561 -248.997183 -679.553797 -249.224921 -679.343062 -249.57688 C -677.741476 -251.108933 -676.350625 -252.889428 -674.559377 -254.173041 C -674.158981 -254.421482 -673.695364 -254.71133 -673.25282 -254.524999 C -672.557394 -254.110931 -672.241292 -253.3242 -671.545866 -253.013649 C -670.955808 -252.910132 -670.260383 -253.117166 -669.94428 -253.614048 C -669.859986 -254.814847 -670.049648 -256.015646 -669.902133 -257.216445 C -669.691398 -257.920362 -669.10134 -258.313727 -668.595576 -258.810609 C -667.605122 -259.618043 -667.057211 -260.818842 -666.235344 -261.812607 C -665.30811 -263.116923 -664.507317 -264.524756 -663.643303 -265.829072 C -662.884657 -267.216202 -662.147085 -268.624035 -661.641321 -270.218199 C -661.430586 -270.818599 -661.430586 -271.522515 -661.535953 -272.226432 C -661.830982 -273.116679 -662.947878 -272.826831 -663.643303 -272.785425 C -665.961389 -271.770956 -667.900151 -270.073275 -669.733545 -268.375594 C -672.009483 -266.222437 -674.243275 -263.986467 -676.329551 -261.688386 C -678.036505 -259.887188 -679.743458 -257.982472 -681.534706 -256.181274 C -682.778043 -254.980475 -684.000306 -253.696862 -685.433304 -252.703097 C -686.486979 -251.895664 -687.540654 -251.005416 -688.847211 -250.591348 C -689.648004 -250.405017 -690.533091 -250.591348 -691.333884 -250.694865 C -692.598294 -250.901899 -693.862704 -251.005416 -695.148188 -251.108933 C -695.379996 -251.108933 -695.590731 -251.295264 -695.738246 -251.460892 C -695.843613 -252.309732 -695.864687 -253.303497 -695.232482 -253.98671 C -694.431689 -254.897661 -693.546602 -255.787909 -692.598294 -256.491825 C -691.60784 -257.195742 -690.40665 -257.796141 -689.20546 -258.085989 C -688.404667 -258.189506 -688.004271 -257.299259 -687.393139 -256.88519 C -687.161331 -256.595342 -686.697714 -256.595342 -686.402685 -256.781673 C -685.496524 -257.299259 -685.096128 -258.293024 -684.801099 -259.183271 C -684.50607 -260.197739 -684.56929 -261.191504 -684.253188 -262.081751 C -684.168894 -262.49582 -683.852791 -262.682151 -683.599909 -262.889185 C -682.356573 -263.758729 -681.239677 -264.73179 -680.143855 -265.746258 C -678.436901 -267.299016 -676.645654 -268.831069 -675.233729 -270.652971 C -672.030557 -274.255368 -669.206708 -278.230427 -667.036137 -282.557444 C -666.846476 -282.888698 -666.530373 -283.19925 -666.214271 -283.240657 C -664.10692 -283.426988 -662.104938 -282.888698 -660.018661 -282.950809 C -658.100973 -282.930105 -656.246504 -282.992216 -654.41311 -283.385581 C -653.064406 -283.592615 -651.631408 -283.98598 -650.577733 -284.896931 C -649.566205 -285.890696 -649.271176 -287.381343 -649.060441 -288.789176 C -648.870779 -289.989975 -648.765412 -291.294291 -648.660044 -292.49509 C -648.765412 -293.592372 -648.470383 -294.689653 -648.259648 -295.786935 C -648.069986 -297.588134 -647.669589 -299.306518 -647.079531 -301.087013 C -646.679135 -302.681177 -645.477945 -303.985494 -644.466417 -305.393327 C -643.15986 -306.883974 -641.916524 -308.498841 -640.56782 -309.885971 C -640.378158 -310.196523 -640.019909 -310.486371 -640.062056 -310.879736 C -640.56782 -311.790687 -641.663642 -312.184052 -642.569802 -312.53601 C -643.960653 -312.950079 -645.372578 -313.446961 -646.763429 -313.26063 C -649.165808 -312.970782 -651.46282 -311.935611 -653.464802 -310.610591 C -654.961021 -309.616827 -656.499387 -308.830096 -658.185267 -308.31251 C -658.943913 -308.12618 -659.681485 -307.919145 -660.440131 -307.815628 C -661.451659 -307.712111 -662.442114 -307.815628 -663.453642 -307.919145 C -664.149067 -308.022662 -664.844493 -308.022662 -665.539919 -308.229697 C -665.539919 -309.016427 -664.94986 -309.513309 -664.94986 -310.320743 C -665.940315 -310.714108 -666.951843 -310.113709 -667.942298 -310.155116 C -668.743091 -310.258633 -669.543884 -310.527777 -670.260383 -310.817625 C -672.346659 -311.521542 -674.348642 -312.41179 -676.245257 -313.32274 C -676.540286 -313.426258 -676.940683 -313.612588 -676.751021 -314.026657 C -676.392772 -314.523539 -675.739493 -314.751277 -675.149435 -314.916905 C -674.45401 -314.958311 -673.842878 -314.627057 -673.147452 -314.627057 C -672.367733 -314.544243 -671.651234 -314.813387 -670.955808 -315.020422 C -667.478681 -316.117704 -664.149067 -317.525537 -660.756234 -318.726336 C -658.14312 -319.616583 -655.551079 -320.589644 -652.748303 -320.713865 C -651.715702 -320.610348 -650.640953 -320.527534 -649.650499 -320.154872 C -645.246137 -318.93337 -641.41076 -316.366145 -637.090692 -314.958311 C -636.289899 -314.854794 -635.510179 -314.854794 -634.709386 -314.958311 C -633.402829 -315.268863 -631.990905 -315.455194 -630.705421 -315.869262 C -629.398864 -316.055593 -628.092307 -316.221221 -626.806823 -316.366145 C -625.689928 -316.552476 -624.594106 -316.366145 -623.498284 -316.552476 C -622.592123 -316.655993 -621.707036 -316.552476 -620.800875 -316.614586 C -620.000082 -316.614586 -619.199289 -316.718103 -618.398496 -316.511069 C -617.323748 -316.221221 -616.291146 -315.724338 -615.237471 -315.413787 C -610.938477 -314.916905 -606.892365 -313.426258 -602.740885 -312.41179 C -601.244666 -312.018424 -599.790595 -311.625059 -598.231156 -311.418025 C -597.53573 -311.314508 -596.945672 -311.066067 -596.208099 -311.02466 C -595.091204 -310.921143 -593.995382 -310.755515 -592.878486 -310.569184 C -591.888032 -310.569184 -590.876504 -310.36215 -589.886049 -310.36215 L -584.069763 -310.36215 C -581.22484 -310.776219 -578.27455 -311.376618 -575.872171 -313.074299 C -575.071378 -313.674699 -574.776349 -314.668463 -574.375952 -315.475897 C -574.186291 -315.765745 -573.828041 -316.262628 -573.385498 -316.076297 C -572.479337 -315.869262 -571.573177 -315.97278 -570.709163 -315.97278 C -569.781929 -315.97278 -568.917915 -316.407552 -568.011755 -316.676696 C -568.370004 -317.504833 -569.318312 -317.877495 -569.803002 -318.602115 C -569.318312 -318.705632 -568.770401 -318.602115 -568.264637 -318.436488 C -566.368022 -317.939605 -564.155304 -318.540005 -562.869821 -320.030652 C -562.553718 -320.299796 -562.869821 -320.548238 -563.059482 -320.734568 C -563.64954 -321.148637 -564.260672 -321.542002 -564.956097 -321.935367 C -565.461861 -322.349436 -566.157287 -322.597877 -566.557683 -323.136166 L -566.368022 -323.405311 C -565.061465 -323.426014 -563.860275 -323.094759 -562.553718 -323.094759 C -561.752925 -323.094759 -560.952132 -323.508828 -560.467441 -324.026414 C -560.362074 -324.233448 -560.362074 -324.626813 -560.551735 -324.73033 C -561.352528 -325.33073 -562.153321 -325.827612 -562.954115 -326.428012 C -563.16485 -326.531529 -563.502026 -326.738563 -563.354511 -327.028411 C -562.047954 -327.069818 -560.657103 -326.924894 -559.350546 -327.028411 C -558.254724 -327.235445 -557.158902 -327.587404 -556.252741 -328.22921 C -556.06308 -328.436244 -556.252741 -328.684686 -556.463476 -328.726092 C -557.664666 -329.285085 -559.160884 -329.036644 -560.256706 -329.823374 C -560.551735 -330.030408 -560.551735 -330.320257 -560.657103 -330.630808 C -559.750942 -330.755029 -558.760488 -330.361663 -557.854327 -330.589401 C -556.105227 -330.692918 -554.313979 -331.044877 -552.691319 -331.831607 C -552.39629 -331.976531 -552.39629 -332.432006 -552.691319 -332.57693 C -553.59748 -333.073813 -554.693302 -333.073813 -555.599463 -333.384364 C -556.168447 -333.570695 -556.779579 -333.943357 -556.800652 -334.585163 C -556.358109 -334.978528 -555.662683 -334.68868 -555.093699 -334.585163 C -554.103244 -334.171094 -553.091716 -334.771494 -552.101261 -334.875011 C -551.047586 -335.082045 -549.993911 -335.371893 -549.003457 -335.682445 C -549.235265 -336.386361 -549.80425 -336.779727 -550.246793 -337.276609 C -550.668263 -337.669974 -551.152954 -338.18756 -551.55335 -338.684442 C -550.942219 -338.787959 -550.457528 -338.477408 -549.846397 -338.270374 C -548.940236 -337.877008 -548.013002 -337.669974 -547.022548 -337.669974 C -545.526329 -337.711381 -544.114404 -338.228967 -542.681406 -338.477408 C -542.576039 -338.870773 -542.576039 -339.388359 -542.871068 -339.678207 C -543.671861 -340.382123 -544.788756 -340.982523 -544.978418 -342.183322 C -543.882596 -341.87277 -542.786774 -341.375888 -541.585584 -341.272371 C -541.269482 -341.334481 -540.784791 -341.479405 -540.890159 -341.831364 C -540.890159 -342.038398 -540.890159 -342.224729 -541.07982 -342.328246 C -541.943834 -343.13568 -543.145023 -343.2599 -544.177625 -343.653265 C -543.777228 -344.212258 -543.060729 -344.253665 -542.449598 -344.357182 C -541.43807 -344.564216 -540.447615 -344.667733 -539.436087 -344.357182 C -538.846029 -344.150148 -538.340265 -343.8603 -537.750207 -343.963817 C -537.349811 -344.750547 -537.349811 -345.682202 -536.844046 -346.551746 C -536.696532 -346.468932 -536.44365 -346.468932 -536.338282 -346.261898 C -535.748224 -345.495871 -535.432122 -344.522809 -534.631329 -343.881003 C -533.430139 -342.887239 -531.933921 -342.266136 -530.332335 -342.328246 C -529.046851 -342.53528 -527.740294 -342.928645 -526.581251 -343.653265 C -525.380062 -344.439996 -524.389607 -345.454464 -523.251638 -346.241194 Z M -524.010284 -345.640795 " transform="matrix(0.185363,0,0,0.188676,129.604839,65.960377)"/>
</g>
</svg>
